<?xml version="1.0" encoding="iso-8859-1"?>
<!-- Generator: Adobe Illustrator 19.0.0, SVG Export Plug-In . SVG Version: 6.00 Build 0)  -->
<svg version="1.1" id="Capa_1" xmlns="http://www.w3.org/2000/svg" xmlns:xlink="http://www.w3.org/1999/xlink" x="0px" y="0px"
	 viewBox="0 0 511.999 511.999" style="enable-background:new 0 0 511.999 511.999;" xml:space="preserve">
<path style="fill:#FFC853;" d="M509.932,260.988L260.988,509.932c-2.755,2.755-7.223,2.755-9.978,0L2.066,260.988
	c-2.755-2.755-2.755-7.223,0-9.978L251.01,2.066c2.755-2.755,7.223-2.755,9.978,0L509.932,251.01
	C512.687,253.765,512.687,258.232,509.932,260.988z"/>
<path style="fill:#EDB043;" d="M509.929,260.984L260.984,509.929c-2.75,2.76-7.221,2.76-9.971,0l-64.121-64.121l258.915-258.915
	l64.121,64.121C512.689,253.763,512.689,258.234,509.929,260.984z"/>
<path style="fill:#3F414C;" d="M388.735,215.992l-92.58-64.596c-3.414-2.382-8.097,0.061-8.097,4.224v29.112
	c0,2.844-2.306,5.15-5.15,5.15h-93.596c-0.022,0-0.044,0.003-0.066,0.003h-16.054c-2.844,0-5.15,2.306-5.15,5.15v159.249
	c0,2.844,2.306,5.15,5.15,5.15h50.367c2.844,0,5.15-2.306,5.15-5.15v-98.585c0-2.844,2.306-5.15,5.15-5.15h49.049
	c2.844,0,5.15,2.306,5.15,5.15v29.112c0,4.163,4.683,6.606,8.097,4.224l92.58-64.596
	C391.672,222.39,391.672,218.042,388.735,215.992z"/>
<path style="fill:#232323;" d="M388.732,224.438l-92.582,64.595c-3.41,2.39-8.096-0.062-8.096-4.223v-28.883l78.954-55.087
	l21.724,15.152C391.668,218.041,391.668,222.388,388.732,224.438z"/>
<g>
</g>
<g>
</g>
<g>
</g>
<g>
</g>
<g>
</g>
<g>
</g>
<g>
</g>
<g>
</g>
<g>
</g>
<g>
</g>
<g>
</g>
<g>
</g>
<g>
</g>
<g>
</g>
<g>
</g>
</svg>
