<?xml version="1.0" encoding="iso-8859-1"?>
<!-- Generator: Adobe Illustrator 19.0.0, SVG Export Plug-In . SVG Version: 6.00 Build 0)  -->
<svg xmlns="http://www.w3.org/2000/svg" xmlns:xlink="http://www.w3.org/1999/xlink" version="1.1" id="Layer_1" x="0px" y="0px" viewBox="0 0 511.999 511.999" style="enable-background:new 0 0 511.999 511.999;" xml:space="preserve" width="512px" height="512px">
<g>
	<g>
		<circle cx="256" cy="231.53" r="10" fill="#bebebe"/>
	</g>
</g>
<g>
	<g>
		<circle cx="230.71" cy="358.02" r="10" fill="#bebebe"/>
	</g>
</g>
<g>
	<g>
		<circle cx="281.29" cy="358.02" r="10" fill="#bebebe"/>
	</g>
</g>
<g>
	<g>
		<path d="M509.019,225.836C451.452,142.816,356.865,93.253,256,93.253c-0.391,0-0.781,0.008-1.173,0.009    c-0.28,0.002-0.559,0.002-0.839,0.006c-0.014,0-0.029,0.001-0.043,0.001C153.852,93.937,60.156,143.381,2.981,225.836    c-2.376,3.427-2.376,7.97,0,11.396c41.522,59.88,102.686,103.046,172.568,121.933c3.716,8.077,5.723,16.956,5.723,26.049v19.378    c0,11.82,5.977,22.268,15.065,28.489v46.763c0,17.73,14.425,32.155,32.155,32.155h55.014c17.73,0,32.155-14.425,32.155-32.155    v-46.763c9.088-6.22,15.065-16.668,15.065-28.489v-19.378c0-9.066,2.027-17.95,5.781-26.063    c69.862-18.895,130.99-62.042,172.51-121.919C511.395,233.806,511.395,229.263,509.019,225.836z M23.471,231.534    c35.136-48.141,83.851-83.599,138.854-102.571c-2.011,1.789-3.984,3.632-5.907,5.545c-26.223,26.086-41.047,60.66-41.743,97.354    c-0.695,36.644,12.85,71.934,37.487,98.622C100.963,310.663,56.207,276.396,23.471,231.534z M295.662,479.845    c0,6.702-5.453,12.155-12.155,12.155h-55.014c-6.702,0-12.155-5.453-12.155-12.155v-40.748h79.324V479.845z M337.717,324.312    c-6.568,5.986-12.058,12.937-16.339,20.528c-0.475,0.662-0.862,1.382-1.164,2.139c-6.155,11.705-9.486,24.821-9.486,38.236v19.378    c0,7.997-6.507,14.504-14.504,14.504h-80.447c-7.997,0-14.504-6.507-14.504-14.504v-19.378c0-23.138-9.77-45.274-26.805-60.734    c-25.956-23.561-40.462-57.18-39.797-92.238c1.228-64.698,54.87-118.067,119.583-118.976c0.121-0.001,0.242-0.002,0.363-0.003    c0.465-0.005,0.929-0.009,1.395-0.009c32.106,0,62.304,12.37,85.193,34.943c23.31,22.987,36.146,53.674,36.146,86.407    C377.352,268.657,362.905,301.354,337.717,324.312z M359.829,330.49c23.971-25.989,37.522-60.298,37.522-95.885    c0-38.128-14.953-73.872-42.104-100.647c-1.69-1.667-3.415-3.284-5.171-4.854c54.839,19.005,103.401,54.408,138.452,102.432    C455.784,276.412,411.033,310.671,359.829,330.49z" fill="#bebebe"/>
	</g>
</g>
<g>
	<g>
		<path d="M256,142.903c-48.871,0-88.631,39.76-88.631,88.631c0,48.871,39.76,88.63,88.631,88.63    c48.871,0,88.631-39.759,88.631-88.63C344.631,182.663,304.871,142.903,256,142.903z M256,300.164    c-37.843,0-68.631-30.787-68.631-68.63s30.788-68.631,68.631-68.631s68.631,30.788,68.631,68.631S293.843,300.164,256,300.164z" fill="#bebebe"/>
	</g>
</g>
<g>
	<g>
		<path d="M256.819,0c-5.522,0-10,4.478-10,10v43.379c0,5.522,4.478,10,10,10c5.522,0,10-4.478,10-10V10    C266.819,4.478,262.341,0,256.819,0z" fill="#bebebe"/>
	</g>
</g>
<g>
	<g>
		<path d="M334.619,33.744c-3.904-3.902-10.234-3.904-14.143,0l-30.674,30.673c-3.905,3.905-3.905,10.237,0,14.143    c1.954,1.953,4.512,2.929,7.072,2.929c2.559,0,5.118-0.977,7.071-2.929l30.674-30.673    C338.524,43.982,338.524,37.65,334.619,33.744z" fill="#bebebe"/>
	</g>
</g>
<g>
	<g>
		<path d="M222.197,64.418l-30.674-30.673c-3.906-3.904-10.236-3.904-14.143,0c-3.905,3.905-3.905,10.237,0,14.143l30.675,30.673    c1.953,1.952,4.512,2.929,7.071,2.929c2.559,0,5.118-0.977,7.071-2.929C226.102,74.656,226.102,68.324,222.197,64.418z" fill="#bebebe"/>
	</g>
</g>
<g>
</g>
<g>
</g>
<g>
</g>
<g>
</g>
<g>
</g>
<g>
</g>
<g>
</g>
<g>
</g>
<g>
</g>
<g>
</g>
<g>
</g>
<g>
</g>
<g>
</g>
<g>
</g>
<g>
</g>
</svg>
